# xmcd CD database file
#
# Track frame offsets:
#	150
#	14424
#	29872
#	44289
#	54579
#	71178
#	86566
#	99311
#	112630
#	128297
#	137513
#	152250
#	168977
#	183814
#	195445
#
# Disc length: 2828 seconds
#
# Revision: 0
# Processed by: cddbd v1.5.1PL2 Copyright (c) Steve Scherf et al.
# Submitted via: CDex 1.51
#
DISCID=b30b0a0f
DTITLE=Dirty Storey Band - The Dirty Storey Band Live
DYEAR=1997
DGENRE=Country
TTITLE0=Friend of the Devil
TTITLE1=Ghost Riders
TTITLE2=Secret agent man
TTITLE3=foggy mountain
TTITLE4=tie your mother down
TTITLE5=third man theme
TTITLE6=new york
TTITLE7=take me out to the ballgame
TTITLE8=old man on the back porch
TTITLE9=please please me
TTITLE10=rider in the rain
TTITLE11=help me rhonda
TTITLE12=sloop john b.
TTITLE13=surfin' U.S.A.
TTITLE14=Duelling banjos
EXTD=YEAR: 1997
EXTT0=
EXTT1=
EXTT2=
EXTT3=
EXTT4=
EXTT5=
EXTT6=
EXTT7=
EXTT8=
EXTT9=
EXTT10=
EXTT11=
EXTT12=
EXTT13=
EXTT14=
PLAYORDER=
